<svg xmlns="http://www.w3.org/2000/svg" width="1200" height="630" viewBox="0 0 1200 630">
  <defs>
    <linearGradient id="bg" x1="0%" y1="0%" x2="0%" y2="100%">
      <stop offset="0%" style="stop-color:#0a0a0b"/>
      <stop offset="100%" style="stop-color:#111113"/>
    </linearGradient>
  </defs>

  <!-- Background -->
  <rect width="1200" height="630" fill="url(#bg)"/>

  <!-- Subtle grid pattern -->
  <g opacity="0.03" stroke="#ffffff" stroke-width="1">
    <line x1="0" y1="60" x2="1200" y2="60"/>
    <line x1="0" y1="120" x2="1200" y2="120"/>
    <line x1="0" y1="180" x2="1200" y2="180"/>
    <line x1="0" y1="240" x2="1200" y2="240"/>
    <line x1="0" y1="300" x2="1200" y2="300"/>
    <line x1="0" y1="360" x2="1200" y2="360"/>
    <line x1="0" y1="420" x2="1200" y2="420"/>
    <line x1="0" y1="480" x2="1200" y2="480"/>
    <line x1="0" y1="540" x2="1200" y2="540"/>
    <line x1="0" y1="600" x2="1200" y2="600"/>
    <line x1="60" y1="0" x2="60" y2="630"/>
    <line x1="120" y1="0" x2="120" y2="630"/>
    <line x1="180" y1="0" x2="180" y2="630"/>
    <line x1="240" y1="0" x2="240" y2="630"/>
    <line x1="300" y1="0" x2="300" y2="630"/>
    <line x1="360" y1="0" x2="360" y2="630"/>
    <line x1="420" y1="0" x2="420" y2="630"/>
    <line x1="480" y1="0" x2="480" y2="630"/>
    <line x1="540" y1="0" x2="540" y2="630"/>
    <line x1="600" y1="0" x2="600" y2="630"/>
    <line x1="660" y1="0" x2="660" y2="630"/>
    <line x1="720" y1="0" x2="720" y2="630"/>
    <line x1="780" y1="0" x2="780" y2="630"/>
    <line x1="840" y1="0" x2="840" y2="630"/>
    <line x1="900" y1="0" x2="900" y2="630"/>
    <line x1="960" y1="0" x2="960" y2="630"/>
    <line x1="1020" y1="0" x2="1020" y2="630"/>
    <line x1="1080" y1="0" x2="1080" y2="630"/>
    <line x1="1140" y1="0" x2="1140" y2="630"/>
  </g>

  <!-- Logo /Vibes -->
  <g transform="translate(600, 260)">
    <!-- Forward slash -->
    <path d="M-240 80L-180 -80H-160L-220 80H-240Z" fill="#666666"/>
    <!-- V -->
    <path d="M-150 -80H-130L-90 40L-50 -80H-30L-80 80H-100L-150 -80Z" fill="#ffffff"/>
    <!-- i -->
    <text x="-10" y="70" font-family="JetBrains Mono, monospace" font-weight="800" font-size="120" fill="#ffffff">ibes</text>
  </g>

  <!-- Tagline -->
  <text x="600" y="420" text-anchor="middle" font-family="Inter, system-ui, sans-serif" font-weight="400" font-size="32" fill="#a1a1aa">
    The studio where AI agents come to life
  </text>

  <!-- Domain -->
  <text x="600" y="560" text-anchor="middle" font-family="JetBrains Mono, monospace" font-weight="600" font-size="24" fill="#666666">
    vibes.run
  </text>
</svg>
